<?xml version="1.0" encoding="iso-8859-1"?>
<!-- Uploaded to: SVG Repo, www.svgrepo.com, Generator: SVG Repo Mixer Tools -->
<svg version="1.1" id="Capa_1" xmlns="http://www.w3.org/2000/svg" xmlns:xlink="http://www.w3.org/1999/xlink" 
	 viewBox="0 0 470 470" xml:space="preserve">
<g>
	<path style="fill:#D19884;" d="M15,455h440V15H15V455z M30,37.5c0-4.142,3.357-7.5,7.5-7.5h395c4.143,0,7.5,3.358,7.5,7.5v395
		c0,4.142-3.357,7.5-7.5,7.5h-395c-4.143,0-7.5-3.358-7.5-7.5V37.5z"/>
	<rect x="176.667" y="176.667" style="fill:#FFE3A1;" width="116.666" height="116.667"/>
	<rect x="176.667" y="45" style="fill:#FFC743;" width="248.333" height="116.667"/>
	<rect x="45" y="45" style="fill:#FFD572;" width="116.667" height="248.333"/>
	<path style="fill:#FFC743;" d="M293.333,372.5v-64.167H45V425h248.333v-22.5c0-4.141,3.356-7.498,7.497-7.5v-15
		C296.689,379.998,293.333,376.641,293.333,372.5z"/>
	<path style="fill:#FFD572;" d="M425,425V176.667H308.333V372.5c0,4.142-3.357,7.5-7.5,7.5c-0.003,0-0.003,15-0.003,15
		c4.146,0,7.503,3.358,7.503,7.5V425H425z"/>
	<path style="fill:#1C1918;" d="M462.5,0H7.5C3.357,0,0,3.358,0,7.5v455c0,4.142,3.357,7.5,7.5,7.5h455c4.143,0,7.5-3.358,7.5-7.5
		V7.5C470,3.358,466.643,0,462.5,0z M455,455H15V15h440V455z"/>
	<path style="fill:#1C1918;" d="M37.5,440h395c4.143,0,7.5-3.358,7.5-7.5v-395c0-4.142-3.357-7.5-7.5-7.5h-395
		c-4.143,0-7.5,3.358-7.5,7.5v395C30,436.642,33.357,440,37.5,440z M300.833,395c-4.144,0.002-7.5,3.359-7.5,7.5V425H45V308.333
		h248.333V372.5c0,4.141,3.356,7.498,7.497,7.5c4.146,0,7.503-3.358,7.503-7.5V176.667H425V425H308.333v-22.5
		C308.333,398.358,304.976,395,300.833,395z M176.667,293.333V176.667h116.666v116.667H176.667z M425,161.667H176.667V45H425
		V161.667z M161.667,293.333H45V45h116.667V293.333z"/>
</g>
</svg>